HIERARCHY
ROOT Hips
{
  OFFSET 179.979 97.3047 303.174
  CHANNELS 6 Xposition Yposition Zposition Zrotation Xrotation Yrotation
  JOINT Spine
  {
    OFFSET 0.000859786 9.92346 -1.22733
    CHANNELS 3 Zrotation Xrotation Yrotation
    JOINT Spine1
    {
      OFFSET 0 11.732 0
      CHANNELS 3 Zrotation Xrotation Yrotation
      JOINT Spine2
      {
        OFFSET 0 13.4588 0
        CHANNELS 3 Zrotation Xrotation Yrotation
        JOINT Neck
        {
          OFFSET 2.54812e-05 15.0278 0.877907
          CHANNELS 3 Zrotation Xrotation Yrotation
          JOINT Head
          {
            OFFSET 0 10.3218 3.14243
            CHANNELS 3 Zrotation Xrotation Yrotation
            End Site
            {
              OFFSET 0 0 0
            }
          }
        }
        JOINT LeftShoulder
        {
          OFFSET 6.10582 9.10629 0.757062
          CHANNELS 3 Zrotation Xrotation Yrotation
          JOINT LeftArm
          {
            OFFSET 0 12.9223 0
            CHANNELS 3 Zrotation Xrotation Yrotation
            JOINT LeftForeArm
            {
              OFFSET 0 27.4047 0
              CHANNELS 3 Zrotation Xrotation Yrotation
              JOINT LeftHand
              {
                OFFSET -1.28204e-05 27.6145 0
                CHANNELS 3 Zrotation Xrotation Yrotation
                End Site
                {
                  OFFSET 0 0 0
                }
              }
            }
          }
        }
        JOINT RightShoulder
        {
          OFFSET -6.1057 9.10638 0.757076
          CHANNELS 3 Zrotation Xrotation Yrotation
          JOINT RightArm
          {
            OFFSET 0 12.9223 0
            CHANNELS 3 Zrotation Xrotation Yrotation
            JOINT RightForeArm
            {
              OFFSET 0 27.4047 0
              CHANNELS 3 Zrotation Xrotation Yrotation
              JOINT RightHand
              {
                OFFSET 1.28428e-05 27.6145 1.44975e-05
                CHANNELS 3 Zrotation Xrotation Yrotation
                End Site
                {
                  OFFSET 0 0 0
                }
              }
            }
          }
        }
      }
    }
  }
  JOINT LeftUpLeg
  {
    OFFSET 9.12387 -6.65719 -0.0554031
    CHANNELS 3 Zrotation Xrotation Yrotation
    JOINT LeftLeg
    {
      OFFSET 0 40.5994 0
      CHANNELS 3 Zrotation Xrotation Yrotation
      JOINT LeftFoot
      {
        OFFSET 0 42.099 0
        CHANNELS 3 Zrotation Xrotation Yrotation
        JOINT LeftToeBase
        {
          OFFSET 0 15.7216 0
          CHANNELS 3 Zrotation Xrotation Yrotation
          End Site
          {
            OFFSET 0 0 0
          }
        }
      }
    }
  }
  JOINT RightUpLeg
  {
    OFFSET -9.12503 -6.6556 -0.0553527
    CHANNELS 3 Zrotation Xrotation Yrotation
    JOINT RightLeg
    {
      OFFSET 0 40.5994 0
      CHANNELS 3 Zrotation Xrotation Yrotation
      JOINT RightFoot
      {
        OFFSET 0 42.099 0
        CHANNELS 3 Zrotation Xrotation Yrotation
        JOINT RightToeBase
        {
          OFFSET 0 15.7216 0
          CHANNELS 3 Zrotation Xrotation Yrotation
          End Site
          {
            OFFSET 0 0 0
          }
        }
      }
    }
  }
}
MOTION
Frames:	13
Frame Time:	0.0333333
-259.987 12.7458 -171.455 -91.5617 -68.7845 -1.26519 1.89129 -1.63144 -0.177788 3.84712 10.6623 -0.997011 3.96896 17.2558 -1.02504 -44.2851 17.49 14.862 -1.36448 -22.0916 -4.12485 -87.4522 0.787473 91.258 100.581 45.2121 -100.168 93.3827 3.23415 1.27834 -11.1059 -26.2526 -24.9036 95.7716 5.15825 -93.149 -85.7262 57.5357 34.2889 -70.2468 -7.04572 0.646071 -31.823 -51.8849 -24.5632 -177.98 67.6619 -0.704096 175.07 -55.1184 175.62 -18.0881 55.5087 -3.21316 -0.965263 26.367 -3.60229 -157.641 62.5618 -7.05953 -160.483 -84.6996 -153.644 1.31167 61.1808 11.05 0.963539 26.3682 3.55537 
-259.987 12.7458 -171.456 -91.5528 -68.7979 -1.26396 1.89093 -1.62656 -0.179615 3.84677 10.6721 -0.999821 3.96832 17.2656 -1.02672 -44.2202 17.5247 14.8626 -1.44635 -22.1155 -4.10388 -87.443 0.79974 91.2581 100.572 45.2057 -100.168 93.3695 3.22698 1.27759 -11.1272 -26.2497 -24.8936 95.8169 5.19182 -93.1569 -85.7101 57.5773 34.3562 -70.2536 -7.05468 0.645568 -31.8762 -51.8169 -24.6214 -177.98 67.6484 -0.716256 175.07 -55.1193 175.618 -18.0672 55.5091 -3.21075 -0.965263 26.367 -3.60229 -157.673 62.5489 -7.03446 -160.474 -84.6999 -153.646 1.3193 61.1742 11.0458 0.963539 26.3682 3.55537 
-259.987 12.7458 -171.457 -91.5457 -68.8095 -1.26218 1.89059 -1.62169 -0.180986 3.84681 10.6818 -1.00134 3.96818 17.2753 -1.02762 -44.166 17.5705 14.8793 -1.49983 -22.1486 -4.07592 -87.4322 0.80602 91.2582 100.58 45.1994 -100.17 93.3561 3.22 1.27679 -11.1815 -26.2488 -24.9093 95.8613 5.23562 -93.1659 -85.6958 57.6271 34.4287 -70.2604 -7.06417 0.645015 -31.9352 -51.7872 -24.5951 -177.982 67.6389 -0.727934 175.069 -55.1199 175.617 -18.0289 55.5069 -3.20684 -0.965263 26.367 -3.60229 -157.685 62.5392 -7.02472 -160.466 -84.7014 -153.636 1.3132 61.161 11.0439 0.963539 26.3682 3.55537 
-259.987 12.746 -171.458 -91.5353 -68.8204 -1.25397 1.89019 -1.61618 -0.181949 3.84711 10.6929 -1.00178 3.96838 17.2865 -1.02785 -44.1362 17.5972 14.9051 -1.52193 -22.1666 -4.04343 -87.4255 0.791233 91.2595 100.607 45.1881 -100.17 93.3443 3.21468 1.27594 -11.2758 -26.256 -24.9574 95.8717 5.26033 -93.1708 -85.7142 57.6626 34.5065 -70.2719 -7.06706 0.644409 -32.005 -51.819 -24.525 -177.993 67.6311 -0.732801 175.068 -55.1202 175.615 -17.9829 55.5033 -3.20312 -0.965263 26.367 -3.60229 -157.694 62.5289 -7.01395 -160.46 -84.7028 -153.627 1.30189 61.1522 11.0459 0.963539 26.3682 3.55537 
-259.987 12.7464 -171.458 -91.5214 -68.8298 -1.23455 1.88967 -1.61126 -0.182548 3.84747 10.7029 -1.00132 3.9687 17.2963 -1.02748 -44.1031 17.625 14.9324 -1.56501 -22.1827 -4.00734 -87.4253 0.772475 91.2611 100.631 45.1767 -100.167 93.3348 3.21207 1.27508 -11.3322 -26.2833 -25.0287 95.8732 5.2852 -93.1743 -85.725 57.6904 34.5683 -70.279 -7.06747 0.643763 -32.0726 -51.806 -24.5255 -178.016 67.6226 -0.719251 175.067 -55.1204 175.612 -17.9595 55.5028 -3.20534 -0.965263 26.367 -3.60229 -157.694 62.5169 -7.01145 -160.457 -84.7044 -153.613 1.28765 61.1563 11.0547 0.963539 26.3682 3.55537 
-259.986 12.7466 -171.459 -91.511 -68.8387 -1.21661 1.88895 -1.60906 -0.182832 3.84776 10.7124 -1.00017 3.96899 17.3059 -1.02659 -44.0749 17.6463 14.9487 -1.605 -22.2025 -3.98314 -87.422 0.757811 91.2622 100.646 45.1642 -100.158 93.3236 3.20587 1.27418 -11.3376 -26.2896 -25.0156 95.8949 5.30319 -93.1789 -85.6979 57.711 34.5867 -70.2879 -7.06611 0.643083 -32.1575 -51.798 -24.5902 -178.039 67.6139 -0.701937 175.066 -55.1204 175.61 -17.9433 55.5026 -3.20401 -0.965263 26.367 -3.60229 -157.716 62.503 -6.98395 -160.448 -84.706 -153.604 1.27282 61.1657 11.0648 0.963539 26.3682 3.55537 
-259.986 12.7469 -171.46 -91.5 -68.8473 -1.19899 1.88798 -1.60737 -0.182846 3.84783 10.7212 -0.998522 3.96904 17.3147 -1.02528 -44.0485 17.6653 14.9446 -1.6563 -22.2424 -3.98159 -87.4192 0.747146 91.2631 100.665 45.1501 -100.148 93.313 3.20106 1.27328 -11.3301 -26.2835 -24.975 95.9017 5.29572 -93.18 -85.7019 57.7284 34.6095 -70.2958 -7.06372 0.642379 -32.2337 -51.7964 -24.6669 -178.062 67.6067 -0.685848 175.065 -55.1202 175.608 -17.9217 55.5045 -3.20128 -0.965263 26.367 -3.60229 -157.713 62.4904 -6.983 -160.44 -84.7075 -153.596 1.26042 61.1737 11.0715 0.963539 26.3682 3.55537 
-259.986 12.7468 -171.46 -91.508 -68.8548 -1.20185 1.8867 -1.60619 -0.182637 3.84751 10.7287 -0.996569 3.96868 17.3222 -1.02364 -44.0136 17.6814 14.9211 -1.73188 -22.2879 -3.99522 -87.421 0.741238 91.2639 100.677 45.141 -100.145 93.3082 3.20401 1.27239 -11.3202 -26.2722 -24.9327 95.9118 5.28022 -93.1806 -85.7049 57.7362 34.6217 -70.3047 -7.061 0.641657 -32.2885 -51.8025 -24.7404 -178.082 67.6013 -0.671818 175.064 -55.1199 175.605 -17.8982 55.5078 -3.19734 -0.965263 26.367 -3.60229 -157.724 62.4804 -6.96822 -160.436 -84.7085 -153.592 1.25852 61.1743 11.0686 0.963539 26.3682 3.55537 
-259.986 12.7458 -171.461 -91.5243 -68.8612 -1.21231 1.88452 -1.6055 -0.182312 3.84663 10.734 -0.994508 3.96771 17.3275 -1.02174 -43.9885 17.6878 14.8902 -1.7942 -22.3125 -4.01804 -87.4339 0.748433 91.2642 100.687 45.1452 -100.178 93.3178 3.23107 1.27154 -11.3153 -26.262 -24.9176 95.9202 5.27777 -93.1821 -85.697 57.7493 34.633 -70.3164 -7.05869 0.640926 -32.3158 -51.8152 -24.8019 -178.09 67.5971 -0.657581 175.062 -55.1195 175.602 -17.8811 55.5111 -3.19375 -0.965263 26.367 -3.60229 -157.735 62.4758 -6.95553 -160.436 -84.7087 -153.591 1.25933 61.1603 11.0646 0.963539 26.3682 3.55537 
-259.986 12.7443 -171.461 -91.5349 -68.8672 -1.21509 1.88239 -1.6053 -0.181797 3.84503 10.7354 -0.992533 3.96593 17.3289 -1.01967 -43.9979 17.6826 14.8658 -1.79876 -22.3063 -4.04455 -87.4465 0.773396 91.2636 100.682 45.1414 -100.196 93.3085 3.22737 1.27067 -11.3311 -26.2589 -24.9463 95.9346 5.29164 -93.1856 -85.6604 57.7615 34.6246 -70.3298 -7.0575 0.640193 -32.2906 -51.8391 -24.8258 -178.101 67.5921 -0.63996 175.061 -55.1191 175.6 -17.8726 55.5138 -3.19173 -0.965263 26.367 -3.60229 -157.759 62.4736 -6.93044 -160.442 -84.708 -153.596 1.26189 61.1387 11.0601 0.963539 26.3682 3.55537 
-259.986 12.7445 -171.46 -91.5178 -68.8652 -1.19682 1.88028 -1.60559 -0.181133 3.84249 10.7303 -0.990831 3.9631 17.3238 -1.0175 -44.0238 17.672 14.8624 -1.75734 -22.2823 -4.05259 -87.4513 0.799308 91.2632 100.659 45.1341 -100.173 93.2792 3.19553 1.2698 -11.3637 -26.2671 -25.0031 95.9615 5.29861 -93.1901 -85.6185 57.7615 34.5877 -70.327 -7.05816 0.639466 -32.3105 -51.8501 -24.8612 -178.125 67.5946 -0.621511 175.06 -55.1186 175.597 -17.8703 55.5167 -3.19937 -0.965263 26.367 -3.60229 -157.777 62.4804 -6.91894 -160.464 -84.7045 -153.617 1.25809 61.1333 11.0613 0.963539 26.3682 3.55537 
-259.984 12.7454 -171.459 -91.4865 -68.858 -1.16694 1.87814 -1.60636 -0.180365 3.83705 10.7226 -0.988057 3.95737 17.3161 -1.01514 -44.0239 17.6701 14.8869 -1.7213 -22.2393 -4.02698 -87.4544 0.818859 91.2642 100.622 45.129 -100.127 93.2472 3.16704 1.26898 -11.4025 -26.2834 -25.0607 96.0376 5.24807 -93.1947 -85.5547 57.7201 34.4456 -70.2999 -7.06254 0.638754 -32.3446 -51.8647 -24.8777 -178.146 67.6018 -0.613004 175.059 -55.1181 175.595 -17.8703 55.5195 -3.21054 -0.965263 26.367 -3.60229 -157.79 62.4928 -6.92006 -160.494 -84.6995 -153.646 1.25379 61.1313 11.0629 0.963539 26.3682 3.55537 
-259.983 12.7468 -171.459 -91.4517 -68.848 -1.13258 1.87591 -1.60761 -0.179538 3.83085 10.7159 -0.985348 3.95073 17.3095 -1.01204 -44.0064 17.6775 14.9177 -1.70181 -22.2067 -3.9924 -87.457 0.830331 91.2652 100.588 45.1311 -100.097 93.2266 3.16395 1.26824 -11.4483 -26.2963 -25.0813 95.9657 5.30077 -93.1936 -85.6221 57.7656 34.5943 -70.3177 -7.07017 0.638064 -32.456 -51.8322 -24.9822 -178.172 67.6143 -0.6051 175.058 -55.1176 175.593 -17.8654 55.5222 -3.20787 -0.965263 26.367 -3.60229 -157.776 62.5068 -6.94533 -160.536 -84.6941 -153.671 1.23855 61.1309 11.0757 0.963539 26.3682 3.55537 
